<svg xmlns="http://www.w3.org/2000/svg" viewBox="0 0 226.77 31.55"><defs><style>.cls-1{fill:#1d8f59;}</style></defs><title>logo</title><g id="レイヤー_2" data-name="レイヤー 2"><g id="レイヤー_1-2" data-name="レイヤー 1"><polygon class="cls-1" points="0 31.55 5.82 31.55 5.82 3.98 0 0 0 31.55"/><polygon class="cls-1" points="22.9 4.09 22.9 31.55 28.72 31.55 28.72 0 22.9 4.09"/><path class="cls-1" d="M11.64,8V19.91h5.82v-12l-2.6,1.83a.55.55,0,0,1-.62,0Z"/><path class="cls-1" d="M44.21,20.56a10,10,0,0,0,8.33-9.81V9.6A9.6,9.6,0,0,0,42.94,0H34.15V5.34h8.43A4.46,4.46,0,0,1,47,9.81v1.07a4.46,4.46,0,0,1-4.46,4.46H34.39a.24.24,0,0,0-.19.38L46,31.55h6.3Z"/><path class="cls-1" d="M44.79,31.55"/><path d="M89.32,8.4h2.29V19.28H89.32Z"/><path d="M101,15.3,97.53,8.4H100L101.1,11c.32.81.63,1.58,1,2.41h.06c.36-.84.7-1.6,1-2.41l1.14-2.65h2.38l-3.45,6.9v4H101Z"/><path d="M117.12,16.49h-3.71l-.8,2.8h-2.32L114,8.4h2.69l3.68,10.89h-2.4Zm-.49-1.69-.34-1.19c-.36-1.13-.66-2.38-1-3.56h-.06c-.29,1.19-.63,2.43-1,3.56l-.34,1.19Z"/><path d="M149.45,16.49h-3.71l-.8,2.8h-2.32L146.28,8.4H149l3.68,10.89h-2.4ZM149,14.8l-.34-1.19c-.36-1.13-.66-2.38-1-3.56h-.06c-.29,1.19-.63,2.43-1,3.56l-.34,1.19Z"/><path d="M179.6,8.4h2.29V19.28H179.6Z"/><path d="M170.55,15.49a3.43,3.43,0,0,0,2.88-3.39v-.39a3.31,3.31,0,0,0-3.31-3.31h-3v1.84H170a1.54,1.54,0,0,1,1.54,1.54v.37A1.54,1.54,0,0,1,170,13.69h-2.83a.08.08,0,0,0-.07.13l4.08,5.46h2.17Z"/><path d="M189,8.4h2.29v4.72h0l3.79-4.72h2.52l-3.49,4.28,4.11,6.61h-2.52l-3-4.88-1.5,1.82v3.06H189Z"/><path d="M204.23,8.4h7V10.2h-4.73v2.52h4v1.82h-4v2.91h4.9v1.82h-7.19Z"/><path d="M218,8.4h2.33l3.32,5.8,1.14,2.35h.08a37.06,37.06,0,0,1-.29-3.81V8.4h2.16V19.28h-2.32l-3.31-5.83L220,11.12h-.08c.11,1.18.28,2.55.28,3.8v4.37H218Z"/><path d="M72.25,8.4l2,1.37v9.51h-2Zm7.9,1.41v9.48h2V8.4Zm-3.88,1.34v4.12h2V11.12l-.9.63a.19.19,0,0,1-.21,0Z"/><path d="M126.44,8.4l2,1.37v9.51h-2Zm7.9,1.41v9.48h2V8.4Zm-3.88,1.34v4.12h2V11.12l-.9.63a.19.19,0,0,1-.21,0Z"/><path d="M72.25,23.65H73v.78h-.76Zm0,1.57H73v3.47l-.76.42Z"/><path d="M74.49,25.22h.76v.41h0a1.2,1.2,0,0,1,1-.46,1.27,1.27,0,0,1,.86.34,1.34,1.34,0,0,1,.4,1v2.17l-.76.42V26.79a.85.85,0,0,0-.21-.62A.7.7,0,0,0,76,26a.71.71,0,0,0-.54.22.84.84,0,0,0-.21.62v1.9l-.76.42Z"/><path d="M80.68,25.22h.8l.88,2.72h0l.88-2.72h.8l-1.38,3.89h-.62Z"/><path d="M87.12,28.77h0a.63.63,0,0,1-.33.29,1.51,1.51,0,0,1-.6.1,1.35,1.35,0,0,1-1-.34,1.09,1.09,0,0,1-.36-.84,1.12,1.12,0,0,1,.31-.81,1.22,1.22,0,0,1,.91-.34h1v-.41q0-.52-.77-.5a1.33,1.33,0,0,0-.45.06.55.55,0,0,0-.27.24L85,25.74a1.45,1.45,0,0,1,1.27-.57,2,2,0,0,1,1.13.28,1.15,1.15,0,0,1,.43,1v2.24l-.76.42Zm0-1.3h-.91q-.66,0-.65.47a.42.42,0,0,0,.17.34.78.78,0,0,0,.54.15,1.29,1.29,0,0,0,.67-.12q.18-.12.18-.56Z"/><path d="M89.38,25.22h.76v.41h0a1.24,1.24,0,0,1,1.77-.16l-.55.68a.78.78,0,0,0-.5-.2.7.7,0,0,0-.5.2.77.77,0,0,0-.24.62v1.93l-.76.42Z"/><path d="M93,23.65h.76v.78H93Zm0,1.57h.76v3.47l-.76.42Z"/><path d="M95.05,27.16a3.52,3.52,0,0,1,.1-.95,1.38,1.38,0,0,1,.31-.54,1.43,1.43,0,0,1,.44-.35,1.57,1.57,0,0,1,.71-.15,1.6,1.6,0,0,1,.72.15,1.36,1.36,0,0,1,.42.35,1.23,1.23,0,0,1,.32.54,3.77,3.77,0,0,1,.09.94,3.68,3.68,0,0,1-.09.94,1.35,1.35,0,0,1-.32.56,1.19,1.19,0,0,1-.18.17.82.82,0,0,1-.24.16,1.47,1.47,0,0,1-.72.17,1.55,1.55,0,0,1-1.14-.5,1.51,1.51,0,0,1-.31-.56A3.41,3.41,0,0,1,95.05,27.16Zm2.35,0a3.61,3.61,0,0,0,0-.61.73.73,0,0,0-.15-.32A.56.56,0,0,0,97,26,.8.8,0,0,0,96.6,26a.81.81,0,0,0-.36.08.68.68,0,0,0-.25.21.91.91,0,0,0-.14.32,3,3,0,0,0,0,.6,2.88,2.88,0,0,0,0,.59,1,1,0,0,0,.14.34.93.93,0,0,0,.25.2.78.78,0,0,0,.36.08.77.77,0,0,0,.36-.08.72.72,0,0,0,.25-.2.79.79,0,0,0,.15-.34A3.38,3.38,0,0,0,97.4,27.17Z"/><path d="M99.49,25.22h.76v2.32a.85.85,0,0,0,.21.62.71.71,0,0,0,.54.22.7.7,0,0,0,.53-.22.86.86,0,0,0,.21-.62V25.22h.76v3.47l-.76.42V28.7h0a1.19,1.19,0,0,1-1,.46,1.25,1.25,0,0,1-.84-.35,1.23,1.23,0,0,1-.42-1Z"/><path d="M104.18,27.92a1.55,1.55,0,0,0,1.19.5,1,1,0,0,0,.53-.13.41.41,0,0,0,.21-.37.33.33,0,0,0-.12-.29.63.63,0,0,0-.34-.09l-.67-.06a1.25,1.25,0,0,1-.77-.33,1,1,0,0,1-.31-.78,1.07,1.07,0,0,1,.41-.9,1.59,1.59,0,0,1,1-.3,2.94,2.94,0,0,1,.47,0,2.29,2.29,0,0,1,.39.1,2.21,2.21,0,0,1,.62.39l-.47.57a2.33,2.33,0,0,0-.46-.27,1.5,1.5,0,0,0-.55-.09.73.73,0,0,0-.5.13.43.43,0,0,0-.15.34.27.27,0,0,0,.11.23.64.64,0,0,0,.39.14l.63,0a1.15,1.15,0,0,1,.85.37,1.27,1.27,0,0,1,.24.8,1,1,0,0,1-.45.87,1.89,1.89,0,0,1-1.11.32,2.35,2.35,0,0,1-1.66-.7Z"/><path d="M110.36,25.22h.76v.4a1.28,1.28,0,0,1,1-.45,1.16,1.16,0,0,1,1,.51,1,1,0,0,1,.21.48,6.33,6.33,0,0,1,.05,1,6.23,6.23,0,0,1-.05,1,1.09,1.09,0,0,1-.21.49,1.14,1.14,0,0,1-.41.36,1.28,1.28,0,0,1-.6.15,1,1,0,0,1-.52-.13,1.64,1.64,0,0,1-.45-.33v1.57l-.76.42Zm1.5,3.15a.75.75,0,0,0,.42-.11.59.59,0,0,0,.22-.28,1.5,1.5,0,0,0,.1-.39c0-.14,0-.28,0-.43s0-.31,0-.45a1.4,1.4,0,0,0-.1-.39.55.55,0,0,0-.22-.28.82.82,0,0,0-.42-.09.67.67,0,0,0-.4.11.64.64,0,0,0-.23.29,1.49,1.49,0,0,0-.09.38,4.39,4.39,0,0,0,0,.44,3.92,3.92,0,0,0,0,.41,1.5,1.5,0,0,0,.09.39.64.64,0,0,0,.23.29A.65.65,0,0,0,111.86,28.38Z"/><path d="M116.79,28.77h0a.63.63,0,0,1-.33.29,1.51,1.51,0,0,1-.6.1,1.35,1.35,0,0,1-1-.34,1.09,1.09,0,0,1-.36-.84,1.12,1.12,0,0,1,.31-.81,1.22,1.22,0,0,1,.91-.34h1v-.41q0-.52-.77-.5a1.33,1.33,0,0,0-.45.06.55.55,0,0,0-.27.24l-.59-.47a1.45,1.45,0,0,1,1.27-.57,2,2,0,0,1,1.13.28,1.15,1.15,0,0,1,.43,1v2.24l-.76.42Zm0-1.3h-.91q-.66,0-.65.47a.42.42,0,0,0,.17.34.78.78,0,0,0,.54.15,1.29,1.29,0,0,0,.67-.12q.18-.12.18-.56Z"/><path d="M119,25.22h.76v.41h0a1.24,1.24,0,0,1,1.77-.16l-.55.68a.78.78,0,0,0-.5-.2.7.7,0,0,0-.5.2.77.77,0,0,0-.24.62v1.93l-.76.42Z"/><path d="M122.83,24h.76v1.18h.55v.6h-.55v2.27q0,.3.27.29h.28v.73h-.39a.88.88,0,0,1-.65-.25.92.92,0,0,1-.26-.7V25.82h-.38v-.6h.38Z"/><path d="M125.66,27.92a1.55,1.55,0,0,0,1.19.5,1,1,0,0,0,.53-.13.41.41,0,0,0,.21-.37.33.33,0,0,0-.12-.29.63.63,0,0,0-.34-.09l-.67-.06a1.25,1.25,0,0,1-.77-.33,1,1,0,0,1-.31-.78,1.07,1.07,0,0,1,.41-.9,1.59,1.59,0,0,1,1-.3,2.94,2.94,0,0,1,.47,0,2.29,2.29,0,0,1,.39.1,2.21,2.21,0,0,1,.62.39l-.47.57a2.33,2.33,0,0,0-.46-.27,1.5,1.5,0,0,0-.55-.09.73.73,0,0,0-.5.13.43.43,0,0,0-.15.34.27.27,0,0,0,.11.23.64.64,0,0,0,.39.14l.63,0a1.15,1.15,0,0,1,.85.37,1.27,1.27,0,0,1,.24.8,1,1,0,0,1-.45.87,1.89,1.89,0,0,1-1.11.32,2.35,2.35,0,0,1-1.66-.7Z"/></g></g></svg>